<svg xmlns="http://www.w3.org/2000/svg" width="903" height="903" fill="none" viewBox="0 0 903 903"><g clip-path="url(#a)"><mask id="b" width="685" height="903" x="108" y="0" maskUnits="userSpaceOnUse" style="mask-type:alpha"><path fill="#fed002" d="M738.49 208.627c15.385 0 23.785 17.942 13.933 29.766L584.824 417.844c-19.705 23.646-2.903 59.565 27.899 59.565h162.101c15.384 0 23.785 17.942 13.932 29.766L464.449 896.371c-7.26 8.711-20.639 8.711-27.899 0L112.244 507.175c-9.853-11.824-1.452-29.766 13.932-29.766h162.067c30.768 0 47.604-35.919 27.898-59.565L148.543 238.393c-9.853-11.824-1.452-29.766 13.932-29.766h153.666c16.048 0 7.92-26.403 3.287-34.427L239.187 29.765C227.604 16.048 235.628 0 250.871 0h385.862C651.976 0 660 16.048 648.418 29.765L576.2 174.2c-5.547 9.608-7.424 32.622 8.624 32.622z"/></mask><g mask="url(#b)"><path fill="#fed002" d="M738.49 208.627c15.385 0 23.785 17.942 13.933 29.766L584.824 417.844c-19.705 23.646-2.903 59.565 27.899 59.565h162.101c15.384 0 23.785 17.942 13.932 29.766L464.449 896.371c-7.26 8.711-20.639 8.711-27.899 0L112.244 507.175c-9.853-11.824-1.452-29.766 13.932-29.766h162.067c30.768 0 47.604-35.919 27.898-59.565L148.543 238.393c-9.853-11.824-1.452-29.766 13.932-29.766h153.666c16.048 0 7.92-26.403 3.287-34.427L239.187 29.765C227.604 16.048 235.628 0 250.871 0h385.862C651.976 0 660 16.048 648.418 29.765L576.2 174.2c-5.547 9.608-7.424 32.622 8.624 32.622z"/><g filter="url(#c)"><path fill="#fff07c" d="M417.8 952.177c-24.778-17.927 41.082-149.463 147.103-293.793S776.957 411.583 801.734 429.51c24.778 17.927-41.082 149.463-147.103 293.794S442.577 970.104 417.8 952.177"/></g><g filter="url(#d)"><path fill="#ffb42a" d="M399.977 293.306c37.647-23.087-8.253-165.088-102.52-317.167S96.253-280.507 58.605-257.42s8.253 165.089 102.52 317.167c94.267 152.079 201.204 256.647 238.852 233.559"/></g><g filter="url(#e)"><path fill="#fff07c" d="M547.485 540.79c-38.693-27.995 15.887-167.692 121.908-312.023C775.413 84.437 892.727-9.872 931.42 18.123s-15.887 167.693-121.908 312.023C703.492 474.477 586.178 568.785 547.485 540.79"/></g><g filter="url(#f)"><path fill="#fff07c" d="M512.465 270.396c-35.84-25.931 21.053-163.955 127.074-308.286C745.559-182.22 860.56-278.202 896.4-252.27S875.348-88.316 769.327 56.014 548.305 296.327 512.465 270.396"/></g><g filter="url(#g)"><path fill="#ffb42a" d="M363.031 540.79c38.594-27.995-15.847-167.692-121.596-312.023C135.686 84.437 18.672-9.872-19.922 18.123s15.847 167.693 121.596 312.023S324.437 568.785 363.031 540.79"/></g><g filter="url(#h)"><path fill="#ffb42a" d="M492.384 952.176c24.714-17.927-40.977-149.463-146.727-293.793-105.749-144.331-211.511-246.801-236.225-228.874-24.715 17.927 40.977 149.463 146.727 293.794 105.749 144.33 211.511 246.8 236.225 228.873"/></g></g></g><defs><filter id="c" width="615.514" height="747.883" x="302.01" y="316.902" color-interpolation-filters="sRGB" filterUnits="userSpaceOnUse"><feFlood flood-opacity="0" result="BackgroundImageFix"/><feBlend in="SourceGraphic" in2="BackgroundImageFix" result="shape"/><feGaussianBlur result="effect1_foregroundBlur_2034_10497" stdDeviation="55.286"/></filter><filter id="d" width="588.831" height="778.258" x="-65.124" y="-371.186" color-interpolation-filters="sRGB" filterUnits="userSpaceOnUse"><feFlood flood-opacity="0" result="BackgroundImageFix"/><feBlend in="SourceGraphic" in2="BackgroundImageFix" result="shape"/><feGaussianBlur result="effect1_foregroundBlur_2034_10497" stdDeviation="55.286"/></filter><filter id="e" width="629.961" height="753.652" x="424.472" y="-97.369" color-interpolation-filters="sRGB" filterUnits="userSpaceOnUse"><feFlood flood-opacity="0" result="BackgroundImageFix"/><feBlend in="SourceGraphic" in2="BackgroundImageFix" result="shape"/><feGaussianBlur result="effect1_foregroundBlur_2034_10497" stdDeviation="55.286"/></filter><filter id="f" width="626.534" height="752.271" x="391.166" y="-367.073" color-interpolation-filters="sRGB" filterUnits="userSpaceOnUse"><feFlood flood-opacity="0" result="BackgroundImageFix"/><feBlend in="SourceGraphic" in2="BackgroundImageFix" result="shape"/><feGaussianBlur result="effect1_foregroundBlur_2034_10497" stdDeviation="55.286"/></filter><filter id="g" width="628.915" height="753.652" x="-142.903" y="-97.369" color-interpolation-filters="sRGB" filterUnits="userSpaceOnUse"><feFlood flood-opacity="0" result="BackgroundImageFix"/><feBlend in="SourceGraphic" in2="BackgroundImageFix" result="shape"/><feGaussianBlur result="effect1_foregroundBlur_2034_10497" stdDeviation="55.286"/></filter><filter id="h" width="614.505" height="747.883" x="-6.345" y="316.901" color-interpolation-filters="sRGB" filterUnits="userSpaceOnUse"><feFlood flood-opacity="0" result="BackgroundImageFix"/><feBlend in="SourceGraphic" in2="BackgroundImageFix" result="shape"/><feGaussianBlur result="effect1_foregroundBlur_2034_10497" stdDeviation="55.286"/></filter><clipPath id="a"><path fill="#fff" d="M0 0h902.9v902.9H0z"/></clipPath></defs></svg>
